<svg id="Layer_1" data-name="Layer 1" xmlns="http://www.w3.org/2000/svg" viewBox="0 0 537.22 49.72"><defs><style>.cls-1{fill:#333;}.cls-2{fill:#ff1d25;}.cls-3{fill:#fff;}.cls-4{fill:#39b54a;}.cls-5,.cls-6{fill:none;stroke:#000;stroke-miterlimit:10;}.cls-5{stroke-width:0.43px;}.cls-6{stroke-width:0.22px;}</style></defs><title>border</title><path class="cls-1" d="M375.27,11.12a0.35,0.35,0,0,1-.35-0.31,3.33,3.33,0,0,1,.21-1.65,0.35,0.35,0,0,1,.65.27,2.64,2.64,0,0,0-.16,1.31,0.35,0.35,0,0,1-.31.38h0Z" transform="translate(-3 -2.67)"/><path class="cls-1" d="M294.73,27.83a0.35,0.35,0,0,1,0-.7l3-.05h0a0.35,0.35,0,0,1,0,.7l-3,.05h0Zm6-.13a0.35,0.35,0,0,1,0-.7l3-.09a0.35,0.35,0,0,1,0,.7l-3,.09h0Zm6-.2a0.35,0.35,0,0,1,0-.7l3-.12a0.34,0.34,0,0,1,.36.33,0.35,0.35,0,0,1-.33.36l-3,.12h0Zm6-.25a0.35,0.35,0,0,1,0-.7l3-.14a0.34,0.34,0,0,1,.37.33,0.35,0.35,0,0,1-.33.37l-3,.14h0Zm6-.29a0.35,0.35,0,0,1,0-.7l3-.16a0.36,0.36,0,0,1,.37.33,0.35,0.35,0,0,1-.33.37l-3,.16h0Zm6-.32a0.35,0.35,0,0,1,0-.7l3-.17a0.34,0.34,0,0,1,.37.33,0.35,0.35,0,0,1-.33.37l-3,.17h0Zm6-.33a0.35,0.35,0,0,1,0-.7l3-.15a0.34,0.34,0,0,1,.37.33,0.35,0.35,0,0,1-.33.37l-3,.15h0Zm6-.29a0.35,0.35,0,0,1,0-.7l3-.14a0.34,0.34,0,0,1,.37.33,0.35,0.35,0,0,1-.33.37l-3,.14h0Zm6-.28a0.35,0.35,0,0,1,0-.7l3-.14a0.33,0.33,0,0,1,.37.33,0.35,0.35,0,0,1-.33.37l-3,.14h0Zm6-.29a0.35,0.35,0,0,1,0-.7l3-.16a0.36,0.36,0,0,1,.37.33,0.35,0.35,0,0,1-.33.37l-3,.16h0Zm6-.32a0.35,0.35,0,0,1,0-.7l3-.18a0.34,0.34,0,0,1,.37.33,0.35,0.35,0,0,1-.33.37l-3,.18h0Zm6-.39a0.35,0.35,0,0,1,0-.7l3-.23a0.35,0.35,0,0,1,.38.32,0.35,0.35,0,0,1-.32.38l-3,.23h0Zm6-.48a0.35,0.35,0,0,1,0-.7l3-.28a0.33,0.33,0,0,1,.38.31,0.35,0.35,0,0,1-.31.38l-3,.28h0Zm6-.6a0.35,0.35,0,0,1,0-.7l3-.35a0.34,0.34,0,0,1,.39.3,0.35,0.35,0,0,1-.3.39l-3,.35h0Zm6-.78a0.35,0.35,0,0,1-.07-0.69,12.54,12.54,0,0,0,2.77-.93,0.35,0.35,0,0,1,.3.63,13.29,13.29,0,0,1-2.92,1h-0.07Zm5.38-2.57a0.35,0.35,0,0,1-.22-0.62,10.51,10.51,0,0,0,2-2.15,0.35,0.35,0,1,1,.58.39,11.17,11.17,0,0,1-2.08,2.29A0.35,0.35,0,0,1,384.25,20.31ZM377.06,16a7.21,7.21,0,0,1-1.37-.13,0.35,0.35,0,1,1,.13-0.69,6.54,6.54,0,0,0,1.65.1,4.48,4.48,0,0,0,1.16-.22,0.35,0.35,0,1,1,.22.67,5.17,5.17,0,0,1-1.33.25h-0.45Zm10.52-.64-0.1,0a0.35,0.35,0,0,1-.23-0.44,10.13,10.13,0,0,0,.32-1.35,8.51,8.51,0,0,0,.12-1.43,0.39,0.39,0,0,1,.35-0.39,0.32,0.32,0,0,1,.35.31H388l0.35,0.07a9.3,9.3,0,0,1-.13,1.56,10.9,10.9,0,0,1-.34,1.44A0.35,0.35,0,0,1,387.58,15.39Zm-14.45-.85a0.35,0.35,0,0,1-.25-0.1,5.63,5.63,0,0,1-1.45-2.81,0.35,0.35,0,0,1,.69-0.14,4.93,4.93,0,0,0,1.27,2.47A0.35,0.35,0,0,1,373.13,14.54Zm8.05-.44A0.35,0.35,0,0,1,381,14a0.35,0.35,0,0,1-.05-0.49,3.6,3.6,0,0,0,.85-2.26c0-.09,0-0.19,0-0.28a0.35,0.35,0,0,1,.7-0.06c0,0.11,0,.23,0,0.34a4.29,4.29,0,0,1-1,2.7A0.35,0.35,0,0,1,381.18,14.11Zm6.33-4.63a0.35,0.35,0,0,1-.33-0.23,9.06,9.06,0,0,0-1.39-2.53,0.35,0.35,0,0,1,.55-0.43A9.76,9.76,0,0,1,387.84,9a0.35,0.35,0,0,1-.21.45Zm-15.69-.56h-0.08a0.35,0.35,0,0,1-.26-0.42,7.87,7.87,0,0,1,1.29-2.85,0.35,0.35,0,0,1,.57.41,7.19,7.19,0,0,0-1.17,2.6A0.35,0.35,0,0,1,371.82,8.92Zm8.87-.16a0.35,0.35,0,0,1-.21-0.07A3.77,3.77,0,0,0,377.87,8a0.35,0.35,0,0,1-.08-0.7,4.47,4.47,0,0,1,3.1.79A0.35,0.35,0,0,1,380.69,8.76Zm3.19-4a0.35,0.35,0,0,1-.19-0.06,8.47,8.47,0,0,0-2.63-1.18,0.35,0.35,0,0,1,.17-0.68,9.18,9.18,0,0,1,2.84,1.27A0.35,0.35,0,0,1,383.88,4.8Zm-8.59-.58a0.35,0.35,0,0,1-.17-0.66,7,7,0,0,1,1.12-.48,9.28,9.28,0,0,1,1.87-.41,0.36,0.36,0,0,1,.39.31,0.35,0.35,0,0,1-.31.39,8.51,8.51,0,0,0-1.73.38,6.27,6.27,0,0,0-1,.43A0.35,0.35,0,0,1,375.28,4.22Z" transform="translate(-3 -2.67)"/><path class="cls-1" d="M290.14,27.88a0.35,0.35,0,0,1,0-.7h1.5a0.35,0.35,0,0,1,0,.7h-1.5Z" transform="translate(-3 -2.67)"/><path class="cls-1" d="M375.46,46.1a0.35,0.35,0,0,1-.32-0.22,3.34,3.34,0,0,1-.21-1.65,0.34,0.34,0,0,1,.38-0.31,0.35,0.35,0,0,1,.31.38,2.67,2.67,0,0,0,.16,1.31,0.35,0.35,0,0,1-.19.46Z" transform="translate(-3 -2.67)"/><path class="cls-1" d="M378.16,52.38h0a9.2,9.2,0,0,1-1.87-.41,7.12,7.12,0,0,1-1.12-.48,0.35,0.35,0,0,1,.33-0.62,6.46,6.46,0,0,0,1,.43,8.61,8.61,0,0,0,1.73.38A0.35,0.35,0,0,1,378.16,52.38Zm3-.21a0.35,0.35,0,0,1-.09-0.69,8.43,8.43,0,0,0,2.63-1.18,0.35,0.35,0,1,1,.39.58,9.11,9.11,0,0,1-2.84,1.27h-0.09ZM373,49.57a0.35,0.35,0,0,1-.28-0.14,7.86,7.86,0,0,1-1.29-2.86,0.35,0.35,0,0,1,.68-0.15,7.15,7.15,0,0,0,1.17,2.6A0.35,0.35,0,0,1,373,49.57Zm13-.66a0.35,0.35,0,0,1-.21-0.07,0.35,0.35,0,0,1-.06-0.49,9,9,0,0,0,1.39-2.53,0.35,0.35,0,1,1,.66.23,9.73,9.73,0,0,1-1.5,2.73A0.35,0.35,0,0,1,386.07,48.91Zm-7.76-1.15a4.5,4.5,0,0,1-.53,0,0.35,0.35,0,0,1-.3-0.39,0.34,0.34,0,0,1,.39-0.3,3.73,3.73,0,0,0,2.61-.65,0.35,0.35,0,0,1,.41.57A4.41,4.41,0,0,1,378.31,47.75Zm3.79-3.3h0a0.35,0.35,0,0,1-.32-0.38c0-.1,0-0.19,0-0.29a3.59,3.59,0,0,0-.85-2.25,0.35,0.35,0,1,1,.54-0.44,4.28,4.28,0,0,1,1,2.69c0,0.12,0,.23,0,0.35A0.35,0.35,0,0,1,382.1,44.45Zm-10.33-.6H371.7a0.35,0.35,0,0,1-.27-0.41,5.6,5.6,0,0,1,1.46-2.81,0.35,0.35,0,0,1,.5.49,4.9,4.9,0,0,0-1.27,2.46A0.35,0.35,0,0,1,371.77,43.85ZM388,43.29a0.32,0.32,0,0,1-.35-0.31V42.9a8.64,8.64,0,0,0-.12-1.44,10.18,10.18,0,0,0-.32-1.35,0.35,0.35,0,0,1,.67-0.21,11,11,0,0,1,.34,1.44,9.4,9.4,0,0,1,.13,1.55A0.38,0.38,0,0,1,388,43.29ZM378.74,40l-0.11,0a4.44,4.44,0,0,0-1.16-.22,6.55,6.55,0,0,0-1.64.1,0.35,0.35,0,0,1-.13-0.69A7.4,7.4,0,0,1,377.5,39a5.1,5.1,0,0,1,1.34.25A0.35,0.35,0,0,1,378.74,40Zm7.53-2.32a0.35,0.35,0,0,1-.29-0.15,10.5,10.5,0,0,0-2-2.15,0.35,0.35,0,0,1,.45-0.54,11.15,11.15,0,0,1,2.09,2.29A0.35,0.35,0,0,1,386.27,37.66Zm-4.56-3.83a0.35,0.35,0,0,1-.15,0,12.5,12.5,0,0,0-2.77-.93,0.35,0.35,0,0,1-.27-0.42,0.35,0.35,0,0,1,.42-0.27,13.25,13.25,0,0,1,2.92,1A0.35,0.35,0,0,1,381.71,33.83Zm-5.83-1.39h0l-3-.35a0.35,0.35,0,0,1-.31-0.39,0.34,0.34,0,0,1,.39-0.31l3,0.35A0.35,0.35,0,0,1,375.89,32.45Zm-6-.67h0l-3-.28a0.35,0.35,0,0,1-.32-0.38,0.34,0.34,0,0,1,.38-0.32l3,0.28A0.35,0.35,0,0,1,369.9,31.78Zm-6-.54h0l-3-.23a0.35,0.35,0,0,1-.32-0.37,0.33,0.33,0,0,1,.37-0.32l3,0.23A0.35,0.35,0,0,1,363.91,31.24Zm-6-.43h0l-3-.18a0.35,0.35,0,0,1-.33-0.37,0.35,0.35,0,0,1,.37-0.33l3,0.18A0.35,0.35,0,0,1,357.9,30.81Zm-6-.35h0l-3-.16a0.35,0.35,0,0,1-.33-0.37,0.36,0.36,0,0,1,.37-0.33l3,0.16A0.35,0.35,0,0,1,351.89,30.46Zm-6-.3h0l-3-.14a0.35,0.35,0,1,1,0-.7l3,0.14A0.35,0.35,0,0,1,345.87,30.15Zm-6-.28h0l-3-.14a0.35,0.35,0,0,1-.33-0.37,0.34,0.34,0,0,1,.37-0.33l3,0.14A0.35,0.35,0,0,1,339.86,29.88Zm-6-.28h0l-3-.15a0.35,0.35,0,0,1-.33-0.37,0.34,0.34,0,0,1,.37-0.33l3,0.15A0.35,0.35,0,0,1,333.84,29.6Zm-6-.31h0l-3-.17a0.35,0.35,0,0,1-.33-0.37,0.34,0.34,0,0,1,.37-0.33l3,0.17A0.35,0.35,0,0,1,327.83,29.28Zm-6-.33h0l-3-.16a0.35,0.35,0,1,1,0-.7l3,0.16A0.35,0.35,0,0,1,321.81,29Zm-6-.31h0l-3-.14a0.35,0.35,0,0,1-.33-0.37,0.34,0.34,0,0,1,.37-0.33l3,0.14A0.35,0.35,0,0,1,315.8,28.64Zm-6-.27h0l-3-.12a0.35,0.35,0,0,1-.34-0.36,0.33,0.33,0,0,1,.36-0.34l3,0.12A0.35,0.35,0,0,1,309.78,28.37Zm-6-.22h0l-3-.09a0.35,0.35,0,0,1,0-.7h0l3,0.09A0.35,0.35,0,0,1,303.76,28.14Zm-6-.16h0l-3-.05a0.35,0.35,0,0,1-.34-0.35,0.34,0.34,0,0,1,.35-0.35l3,0.05A0.35,0.35,0,0,1,297.74,28Z" transform="translate(-3 -2.67)"/><path class="cls-1" d="M291.64,27.89h-1.5a0.35,0.35,0,0,1,0-.7h1.5A0.35,0.35,0,0,1,291.64,27.89Z" transform="translate(-3 -2.67)"/><path class="cls-1" d="M415,11.12h0a0.35,0.35,0,0,1-.31-0.38,2.64,2.64,0,0,0-.16-1.31,0.35,0.35,0,1,1,.64-0.27,3.32,3.32,0,0,1,.21,1.65A0.35,0.35,0,0,1,415,11.12Z" transform="translate(-3 -2.67)"/><path class="cls-1" d="M495.56,27.83h0l-3-.05a0.35,0.35,0,0,1,0-.7h0l3,0.05A0.35,0.35,0,0,1,495.56,27.83Zm-6-.13h0l-3-.09a0.35,0.35,0,0,1-.34-0.36,0.35,0.35,0,0,1,.36-0.34l3,0.09A0.35,0.35,0,0,1,489.54,27.7Zm-6-.2h0l-3-.12a0.35,0.35,0,0,1-.33-0.36,0.34,0.34,0,0,1,.36-0.33l3,0.12A0.35,0.35,0,0,1,483.52,27.51Zm-6-.25h0l-3-.14a0.35,0.35,0,0,1-.33-0.37,0.34,0.34,0,0,1,.37-0.33l3,0.14A0.35,0.35,0,0,1,477.5,27.26Zm-6-.29h0l-3-.16a0.35,0.35,0,0,1-.33-0.37,0.36,0.36,0,0,1,.37-0.33l3,0.16A0.35,0.35,0,0,1,471.49,27Zm-6-.32h0l-3-.17a0.35,0.35,0,0,1-.33-0.37,0.34,0.34,0,0,1,.37-0.33l3,0.17A0.35,0.35,0,0,1,465.47,26.64Zm-6-.33h0l-3-.15a0.35,0.35,0,0,1-.33-0.37,0.34,0.34,0,0,1,.37-0.33l3,0.15A0.35,0.35,0,0,1,459.46,26.31Zm-6-.29h0l-3-.14a0.35,0.35,0,0,1-.33-0.37,0.34,0.34,0,0,1,.37-0.33l3,0.14A0.35,0.35,0,0,1,453.45,26Zm-6-.28h0l-3-.14a0.35,0.35,0,0,1-.33-0.37,0.32,0.32,0,0,1,.37-0.33l3,0.14A0.35,0.35,0,0,1,447.43,25.74Zm-6-.29h0l-3-.16a0.35,0.35,0,0,1-.33-0.37,0.36,0.36,0,0,1,.37-0.33l3,0.16A0.35,0.35,0,0,1,441.41,25.45Zm-6-.32h0l-3-.18a0.35,0.35,0,0,1-.33-0.37,0.33,0.33,0,0,1,.37-0.33l3,0.18A0.35,0.35,0,0,1,435.4,25.13Zm-6-.39h0l-3-.23a0.35,0.35,0,0,1,.05-0.7l3,0.23A0.35,0.35,0,0,1,429.39,24.74Zm-6-.48h0l-3-.28a0.35,0.35,0,0,1-.31-0.38,0.33,0.33,0,0,1,.38-0.31l3,0.28A0.35,0.35,0,0,1,423.39,24.26Zm-6-.6h0l-3-.35a0.35,0.35,0,0,1-.3-0.39,0.34,0.34,0,0,1,.39-0.3l3,0.35A0.35,0.35,0,0,1,417.39,23.66Zm-6-.78h-0.07a13.25,13.25,0,0,1-2.92-1,0.35,0.35,0,0,1,.3-0.63,12.53,12.53,0,0,0,2.77.93A0.35,0.35,0,0,1,411.42,22.88ZM406,20.31a0.35,0.35,0,0,1-.22-0.08,11.14,11.14,0,0,1-2.09-2.29,0.35,0.35,0,1,1,.58-0.39,10.47,10.47,0,0,0,2,2.15A0.35,0.35,0,0,1,406,20.31ZM413.24,16h-0.45a5.17,5.17,0,0,1-1.34-.25,0.35,0.35,0,1,1,.22-0.67,4.49,4.49,0,0,0,1.16.22,6.66,6.66,0,0,0,1.65-.1,0.35,0.35,0,1,1,.13.69A7.21,7.21,0,0,1,413.24,16Zm-10.52-.64a0.35,0.35,0,0,1-.33-0.25A11,11,0,0,1,402,13.7a9.54,9.54,0,0,1-.13-1.55,0.39,0.39,0,0,1,.35-0.39,0.32,0.32,0,0,1,.35.31v0.08a8.79,8.79,0,0,0,.12,1.43,10.09,10.09,0,0,0,.32,1.35,0.35,0.35,0,0,1-.23.44Zm14.45-.85a0.35,0.35,0,0,1-.25-0.6,4.92,4.92,0,0,0,1.27-2.47,0.35,0.35,0,1,1,.69.14,5.63,5.63,0,0,1-1.45,2.81A0.35,0.35,0,0,1,417.17,14.54Zm-8.05-.44a0.35,0.35,0,0,1-.27-0.13,4.29,4.29,0,0,1-1-2.7,3.41,3.41,0,0,1,0-.34,0.34,0.34,0,0,1,.38-0.32,0.35,0.35,0,0,1,.32.38,2.59,2.59,0,0,0,0,.27,3.6,3.6,0,0,0,.85,2.26,0.35,0.35,0,0,1-.05.49A0.35,0.35,0,0,1,409.11,14.11Zm-6.33-4.63-0.12,0A0.35,0.35,0,0,1,402.46,9,9.75,9.75,0,0,1,404,6.28a0.35,0.35,0,1,1,.55.43,9,9,0,0,0-1.39,2.53A0.35,0.35,0,0,1,402.79,9.48Zm15.69-.56a0.35,0.35,0,0,1-.34-0.27A7.2,7.2,0,0,0,417,6a0.35,0.35,0,0,1,.57-0.41,7.88,7.88,0,0,1,1.29,2.85,0.35,0.35,0,0,1-.26.42h-0.08Zm-8.87-.16a0.35,0.35,0,0,1-.21-0.63,4.47,4.47,0,0,1,3.1-.79,0.35,0.35,0,0,1-.08.7,3.74,3.74,0,0,0-2.61.66A0.35,0.35,0,0,1,409.61,8.76Zm-3.19-4a0.35,0.35,0,0,1-.19-0.64,9.15,9.15,0,0,1,2.84-1.27,0.35,0.35,0,0,1,.17.68,8.46,8.46,0,0,0-2.63,1.18A0.35,0.35,0,0,1,406.42,4.8ZM415,4.22a0.35,0.35,0,0,1-.17,0,6.25,6.25,0,0,0-1-.43,8.51,8.51,0,0,0-1.73-.38A0.35,0.35,0,0,1,411.79,3a0.36,0.36,0,0,1,.39-0.31,9.27,9.27,0,0,1,1.88.41,7,7,0,0,1,1.12.48A0.35,0.35,0,0,1,415,4.22Z" transform="translate(-3 -2.67)"/><path class="cls-1" d="M500.16,27.88h-1.5a0.35,0.35,0,0,1,0-.7h1.5A0.35,0.35,0,0,1,500.16,27.88Z" transform="translate(-3 -2.67)"/><path class="cls-1" d="M414.84,46.1l-0.13,0a0.35,0.35,0,0,1-.19-0.46,2.65,2.65,0,0,0,.16-1.31,0.35,0.35,0,0,1,.31-0.38,0.34,0.34,0,0,1,.38.31,3.34,3.34,0,0,1-.21,1.65A0.35,0.35,0,0,1,414.84,46.1Z" transform="translate(-3 -2.67)"/><path class="cls-1" d="M412.14,52.38a0.35,0.35,0,0,1,0-.7,8.54,8.54,0,0,0,1.73-.38,6.37,6.37,0,0,0,1-.43,0.35,0.35,0,1,1,.33.62,7,7,0,0,1-1.12.48,9.14,9.14,0,0,1-1.87.41h0Zm-3-.21h-0.09a9.13,9.13,0,0,1-2.84-1.27,0.35,0.35,0,0,1,.39-0.58,8.45,8.45,0,0,0,2.63,1.18A0.35,0.35,0,0,1,409.15,52.17Zm8.1-2.61A0.35,0.35,0,0,1,417,49a7.16,7.16,0,0,0,1.17-2.6,0.35,0.35,0,1,1,.68.15,7.86,7.86,0,0,1-1.29,2.85A0.35,0.35,0,0,1,417.25,49.57Zm-13-.66a0.35,0.35,0,0,1-.28-0.13,9.73,9.73,0,0,1-1.5-2.73,0.35,0.35,0,0,1,.66-0.23,9,9,0,0,0,1.39,2.53,0.35,0.35,0,0,1-.06.49A0.35,0.35,0,0,1,404.22,48.91ZM412,47.75a4.4,4.4,0,0,1-2.58-.81,0.35,0.35,0,0,1,.41-0.57,3.71,3.71,0,0,0,2.6.65,0.34,0.34,0,0,1,.39.3,0.35,0.35,0,0,1-.3.39A4.5,4.5,0,0,1,412,47.75Zm-3.79-3.3a0.35,0.35,0,0,1-.35-0.32c0-.12,0-0.23,0-0.35a4.28,4.28,0,0,1,1-2.69,0.35,0.35,0,0,1,.54.44,3.58,3.58,0,0,0-.85,2.25c0,0.09,0,.19,0,0.29a0.35,0.35,0,0,1-.32.38h0Zm10.33-.6a0.35,0.35,0,0,1-.34-0.28,4.91,4.91,0,0,0-1.27-2.46,0.35,0.35,0,0,1,.5-0.49,5.61,5.61,0,0,1,1.46,2.81,0.35,0.35,0,0,1-.27.41h-0.07Zm-16.27-.56a0.32,0.32,0,0,1-.35-0.31V42.9a9.34,9.34,0,0,1,.13-1.55,10.52,10.52,0,0,1,.34-1.44,0.35,0.35,0,0,1,.67.21,9.91,9.91,0,0,0-.32,1.35,8.69,8.69,0,0,0-.12,1.44A0.38,0.38,0,0,1,402.26,43.29ZM411.55,40a0.35,0.35,0,0,1-.11-0.68,5.14,5.14,0,0,1,1.34-.26,7.46,7.46,0,0,1,1.81.11,0.35,0.35,0,0,1-.13.69,6.47,6.47,0,0,0-1.64-.1,4.5,4.5,0,0,0-1.16.22ZM404,37.66a0.35,0.35,0,0,1-.29-0.55,11.15,11.15,0,0,1,2.09-2.29,0.35,0.35,0,0,1,.45.54,10.5,10.5,0,0,0-2,2.15A0.35,0.35,0,0,1,404,37.66Zm4.55-3.83a0.35,0.35,0,0,1-.15-0.67,13.25,13.25,0,0,1,2.92-1,0.35,0.35,0,1,1,.14.69,12.5,12.5,0,0,0-2.77.93A0.35,0.35,0,0,1,408.58,33.83Zm5.83-1.39a0.35,0.35,0,0,1,0-.7l3-.35a0.34,0.34,0,0,1,.39.31,0.35,0.35,0,0,1-.31.39l-3,.35h0Zm6-.67a0.35,0.35,0,0,1,0-.7l3-.28a0.34,0.34,0,0,1,.38.32,0.35,0.35,0,0,1-.32.38l-3,.28h0Zm6-.54a0.35,0.35,0,0,1,0-.7l3-.23a0.33,0.33,0,0,1,.37.32,0.35,0.35,0,0,1-.32.37l-3,.23h0Zm6-.43a0.35,0.35,0,0,1,0-.7l3-.18a0.36,0.36,0,0,1,.37.33,0.35,0.35,0,0,1-.33.37l-3,.18h0Zm6-.35a0.35,0.35,0,0,1,0-.7l3-.16a0.36,0.36,0,0,1,.37.33,0.35,0.35,0,0,1-.33.37l-3,.16h0Zm6-.3a0.35,0.35,0,0,1,0-.7l3-.14a0.36,0.36,0,0,1,.37.33,0.35,0.35,0,0,1-.33.37l-3,.14h0Zm6-.28a0.35,0.35,0,0,1,0-.7l3-.14a0.33,0.33,0,0,1,.37.33,0.35,0.35,0,0,1-.33.37l-3,.14h0Zm6-.28a0.35,0.35,0,0,1,0-.7l3-.15a0.34,0.34,0,0,1,.37.33,0.35,0.35,0,0,1-.33.37l-3,.15h0Zm6-.31a0.35,0.35,0,0,1,0-.7l3-.17a0.34,0.34,0,0,1,.37.33,0.35,0.35,0,0,1-.33.37l-3,.17h0Zm6-.33a0.35,0.35,0,0,1,0-.7l3-.16a0.36,0.36,0,0,1,.37.33,0.35,0.35,0,0,1-.33.37l-3,.16h0Zm6-.31a0.35,0.35,0,0,1,0-.7l3-.14a0.34,0.34,0,0,1,.37.33,0.35,0.35,0,0,1-.33.37l-3,.14h0Zm6-.27a0.35,0.35,0,0,1,0-.7l3-.12a0.34,0.34,0,0,1,.36.34,0.35,0.35,0,0,1-.34.36l-3,.12h0Zm6-.22a0.35,0.35,0,0,1,0-.7l3-.09h0a0.35,0.35,0,0,1,0,.7l-3,.09h0Zm6-.16a0.35,0.35,0,0,1,0-.7l3-.05a0.33,0.33,0,0,1,.35.35,0.35,0.35,0,0,1-.34.35l-3,.05h0Z" transform="translate(-3 -2.67)"/><path class="cls-1" d="M498.66,27.89a0.35,0.35,0,0,1,0-.7h1.5a0.35,0.35,0,0,1,0,.7h-1.5Z" transform="translate(-3 -2.67)"/><path class="cls-1" d="M529.9,15.19l0.11,0a0.28,0.28,0,0,1,.14.37,2.14,2.14,0,0,0-.17,1,0.28,0.28,0,0,1-.26.3,0.28,0.28,0,0,1-.3-0.26,2.7,2.7,0,0,1,.22-1.32A0.28,0.28,0,0,1,529.9,15.19Z" transform="translate(-3 -2.67)"/><path class="cls-1" d="M539.66,18.14a7,7,0,0,1-.14,1.15,8,8,0,0,1-.3,1.08,0.28,0.28,0,1,0,.53.19,8.49,8.49,0,0,0,.32-1.15,7.53,7.53,0,0,0,.15-1.25V18.1a0.26,0.26,0,0,0-.27-0.26A0.31,0.31,0,0,0,539.66,18.14Z" transform="translate(-3 -2.67)"/><path class="cls-1" d="M538.1,22.26a7,7,0,0,1-.66,1,8,8,0,0,1-.77.81,0.28,0.28,0,0,0,.38.42,8.49,8.49,0,0,0,.82-0.87,7.53,7.53,0,0,0,.72-1l0-.05a0.26,0.26,0,0,0-.12-0.36A0.31,0.31,0,0,0,538.1,22.26Z" transform="translate(-3 -2.67)"/><path class="cls-1" d="M536.64,31.44a7,7,0,0,1,.86.78,8,8,0,0,1,.7.87,0.28,0.28,0,1,0,.46-0.32,8.49,8.49,0,0,0-.75-0.93A7.53,7.53,0,0,0,537,31l0,0a0.26,0.26,0,0,0-.37.07A0.31,0.31,0,0,0,536.64,31.44Z" transform="translate(-3 -2.67)"/><path class="cls-1" d="M539.34,15.78a0.28,0.28,0,1,0,.54-0.17,7.85,7.85,0,0,0-1.12-2.24,0.28,0.28,0,1,0-.46.33A7.27,7.27,0,0,1,539.34,15.78Z" transform="translate(-3 -2.67)"/><path class="cls-1" d="M535.2,16.72h0a0.28,0.28,0,0,0-.27.3c0,0.08,0,.15,0,0.23a2.89,2.89,0,0,1-.75,1.79,0.28,0.28,0,1,0,.43.37,3.45,3.45,0,0,0,.89-2.14c0-.09,0-0.19,0-0.28A0.28,0.28,0,0,0,535.2,16.72Z" transform="translate(-3 -2.67)"/><path class="cls-1" d="M532.62,20.43a0.28,0.28,0,0,0-.26-0.2h-0.09a3.63,3.63,0,0,1-.94.14,5.22,5.22,0,0,1-1.32-.13,0.28,0.28,0,1,0-.13.55,6,6,0,0,0,1.45.15,4.15,4.15,0,0,0,1.09-.17A0.28,0.28,0,0,0,532.62,20.43Z" transform="translate(-3 -2.67)"/><path class="cls-1" d="M529.84,26.21h0l-2.42.2a0.28,0.28,0,0,0-.26.3,0.27,0.27,0,0,0,.3.26l2.43-.2A0.28,0.28,0,0,0,529.84,26.21Z" transform="translate(-3 -2.67)"/><path class="cls-1" d="M534.58,25.27l-0.12,0a10.08,10.08,0,0,1-2.26.67,0.28,0.28,0,1,0,.1.56,10.69,10.69,0,0,0,2.39-.71A0.28,0.28,0,0,0,534.58,25.27Z" transform="translate(-3 -2.67)"/><path class="cls-1" d="M533.95,15.12a0.28,0.28,0,1,0,.35-0.44,3.55,3.55,0,0,0-2.05-.73h-0.43a0.28,0.28,0,0,0-.26.31,0.28,0.28,0,0,0,.31.26A3,3,0,0,1,533.95,15.12Z" transform="translate(-3 -2.67)"/><path class="cls-1" d="M534.57,11a6.81,6.81,0,0,1,2.08,1,0.28,0.28,0,0,0,.33-0.46,7.37,7.37,0,0,0-2.25-1.11h-0.07A0.28,0.28,0,0,0,534.57,11Z" transform="translate(-3 -2.67)"/><path class="cls-1" d="M508,27.7l2.43,0a0.28,0.28,0,0,0,0-.56h0l-2.43,0a0.28,0.28,0,0,0-.28.29A0.29,0.29,0,0,0,508,27.7Z" transform="translate(-3 -2.67)"/><path class="cls-1" d="M512.85,27.62l2.43-.06a0.28,0.28,0,0,0,0-.56h0l-2.43.06a0.28,0.28,0,0,0-.28.29A0.29,0.29,0,0,0,512.85,27.62Z" transform="translate(-3 -2.67)"/><path class="cls-1" d="M503.13,27.75l2.43,0a0.28,0.28,0,0,0,0-.56h0l-2.43,0a0.28,0.28,0,0,0-.28.28A0.29,0.29,0,0,0,503.13,27.75Z" transform="translate(-3 -2.67)"/><path class="cls-1" d="M517.71,27.48l2.43-.09a0.28,0.28,0,0,0,0-.56h0l-2.43.09a0.28,0.28,0,0,0-.27.29A0.27,0.27,0,0,0,517.71,27.48Z" transform="translate(-3 -2.67)"/><path class="cls-1" d="M522.57,27.28l2.43-.14a0.28,0.28,0,0,0,0-.56h0l-2.42.14a0.28,0.28,0,0,0-.27.3A0.27,0.27,0,0,0,522.57,27.28Z" transform="translate(-3 -2.67)"/><path class="cls-1" d="M530,11.34a5.14,5.14,0,0,1,.83-0.32,6.89,6.89,0,0,1,1.41-.25,0.28,0.28,0,0,0,0-.56h0a7.37,7.37,0,0,0-1.52.27,5.67,5.67,0,0,0-.92.35A0.28,0.28,0,1,0,530,11.34Z" transform="translate(-3 -2.67)"/><path class="cls-1" d="M526.9,15a0.29,0.29,0,0,0,.35-0.2,5.78,5.78,0,0,1,1-2.06,0.28,0.28,0,0,0-.44-0.35,6.34,6.34,0,0,0-1.12,2.26A0.28,0.28,0,0,0,526.9,15Z" transform="translate(-3 -2.67)"/><path class="cls-1" d="M527.66,19.53a0.28,0.28,0,0,0,.42-0.38,4,4,0,0,1-1-2,0.28,0.28,0,0,0-.27-0.23H526.8a0.28,0.28,0,0,0-.23.33A4.53,4.53,0,0,0,527.66,19.53Z" transform="translate(-3 -2.67)"/><path class="cls-1" d="M529.9,40L530,40a0.28,0.28,0,0,0,.14-0.37,2.14,2.14,0,0,1-.17-1,0.28,0.28,0,0,0-.26-0.3,0.28,0.28,0,0,0-.3.26,2.7,2.7,0,0,0,.22,1.32A0.28,0.28,0,0,0,529.9,40Z" transform="translate(-3 -2.67)"/><path class="cls-1" d="M539.66,37a7,7,0,0,0-.14-1.15,8,8,0,0,0-.3-1.08,0.28,0.28,0,1,1,.53-0.19,8.49,8.49,0,0,1,.32,1.15,7.53,7.53,0,0,1,.15,1.25v0.06a0.26,0.26,0,0,1-.27.26A0.31,0.31,0,0,1,539.66,37Z" transform="translate(-3 -2.67)"/><path class="cls-1" d="M539.34,39.41a0.28,0.28,0,1,1,.54.17,7.85,7.85,0,0,1-1.12,2.24,0.28,0.28,0,1,1-.46-0.33A7.27,7.27,0,0,0,539.34,39.41Z" transform="translate(-3 -2.67)"/><path class="cls-1" d="M535.2,38.46h0a0.28,0.28,0,0,1-.27-0.3c0-.08,0-0.15,0-0.23a2.89,2.89,0,0,0-.75-1.79,0.28,0.28,0,1,1,.43-0.37,3.45,3.45,0,0,1,.89,2.14c0,0.09,0,.19,0,0.28A0.28,0.28,0,0,1,535.2,38.46Z" transform="translate(-3 -2.67)"/><path class="cls-1" d="M532.62,34.76a0.28,0.28,0,0,1-.26.2h-0.09a3.63,3.63,0,0,0-.94-0.14,5.22,5.22,0,0,0-1.32.13,0.28,0.28,0,1,1-.13-0.55,6,6,0,0,1,1.45-.15,4.15,4.15,0,0,1,1.09.17A0.28,0.28,0,0,1,532.62,34.76Z" transform="translate(-3 -2.67)"/><path class="cls-1" d="M529.84,29h0l-2.42-.2a0.28,0.28,0,0,1-.26-0.3,0.27,0.27,0,0,1,.3-0.26l2.43,0.2A0.28,0.28,0,0,1,529.84,29Z" transform="translate(-3 -2.67)"/><path class="cls-1" d="M534.58,29.92l-0.12,0a10.08,10.08,0,0,0-2.26-.67,0.28,0.28,0,1,1,.1-0.56,10.69,10.69,0,0,1,2.39.71A0.28,0.28,0,0,1,534.58,29.92Z" transform="translate(-3 -2.67)"/><path class="cls-1" d="M533.95,40.06a0.28,0.28,0,1,1,.35.44,3.55,3.55,0,0,1-2.05.73h-0.43a0.28,0.28,0,0,1-.26-0.31,0.28,0.28,0,0,1,.31-0.26A3,3,0,0,0,533.95,40.06Z" transform="translate(-3 -2.67)"/><path class="cls-1" d="M534.57,44.16a6.81,6.81,0,0,0,2.08-1,0.28,0.28,0,0,1,.33.46,7.37,7.37,0,0,1-2.25,1.11h-0.07A0.28,0.28,0,0,1,534.57,44.16Z" transform="translate(-3 -2.67)"/><path class="cls-1" d="M508,27.49l2.43,0a0.28,0.28,0,0,1,0,.56h0L508,28a0.28,0.28,0,0,1-.28-0.29A0.29,0.29,0,0,1,508,27.49Z" transform="translate(-3 -2.67)"/><path class="cls-1" d="M512.85,27.57l2.43,0.06a0.28,0.28,0,0,1,0,.56h0l-2.43-.06a0.28,0.28,0,0,1-.28-0.29A0.29,0.29,0,0,1,512.85,27.57Z" transform="translate(-3 -2.67)"/><path class="cls-1" d="M503.13,27.43l2.43,0a0.28,0.28,0,0,1,0,.56h0l-2.43,0a0.28,0.28,0,0,1-.28-0.28A0.29,0.29,0,0,1,503.13,27.43Z" transform="translate(-3 -2.67)"/><path class="cls-1" d="M517.71,27.7l2.43,0.09a0.28,0.28,0,0,1,0,.56h0l-2.43-.09a0.28,0.28,0,0,1-.27-0.29A0.27,0.27,0,0,1,517.71,27.7Z" transform="translate(-3 -2.67)"/><path class="cls-1" d="M522.57,27.91L525,28a0.28,0.28,0,0,1,0,.56h0l-2.42-.14a0.28,0.28,0,0,1-.27-0.3A0.27,0.27,0,0,1,522.57,27.91Z" transform="translate(-3 -2.67)"/><path class="cls-1" d="M530,43.84a5.14,5.14,0,0,0,.83.32,6.89,6.89,0,0,0,1.41.25,0.28,0.28,0,0,1,0,.56h0a7.37,7.37,0,0,1-1.52-.27,5.67,5.67,0,0,1-.92-0.35A0.28,0.28,0,1,1,530,43.84Z" transform="translate(-3 -2.67)"/><path class="cls-1" d="M526.9,40.14a0.29,0.29,0,0,1,.35.2,5.78,5.78,0,0,0,1,2.06,0.28,0.28,0,0,1-.44.35,6.34,6.34,0,0,1-1.12-2.26A0.28,0.28,0,0,1,526.9,40.14Z" transform="translate(-3 -2.67)"/><path class="cls-1" d="M527.66,35.65a0.28,0.28,0,0,1,.42.38,4,4,0,0,0-1,2,0.28,0.28,0,0,1-.27.23H526.8a0.28,0.28,0,0,1-.23-0.33A4.53,4.53,0,0,1,527.66,35.65Z" transform="translate(-3 -2.67)"/><path class="cls-1" d="M13.33,40l-0.11,0a0.28,0.28,0,0,1-.14-0.37,2.14,2.14,0,0,0,.17-1,0.28,0.28,0,0,1,.26-0.3,0.28,0.28,0,0,1,.3.26,2.7,2.7,0,0,1-.22,1.32A0.28,0.28,0,0,1,13.33,40Z" transform="translate(-3 -2.67)"/><path class="cls-1" d="M3.57,37a7,7,0,0,1,.14-1.15A8,8,0,0,1,4,34.82a0.28,0.28,0,0,0-.53-0.19,8.49,8.49,0,0,0-.32,1.15A7.53,7.53,0,0,0,3,37v0.06a0.26,0.26,0,0,0,.27.26A0.31,0.31,0,0,0,3.57,37Z" transform="translate(-3 -2.67)"/><path class="cls-1" d="M5.12,32.93a7,7,0,0,1,.66-1,8,8,0,0,1,.77-0.81,0.28,0.28,0,1,0-.38-0.42,8.49,8.49,0,0,0-.82.87,7.53,7.53,0,0,0-.72,1l0,0.05a0.26,0.26,0,0,0,.12.36A0.31,0.31,0,0,0,5.12,32.93Z" transform="translate(-3 -2.67)"/><path class="cls-1" d="M6.58,23.74A7,7,0,0,1,5.72,23,8,8,0,0,1,5,22.09a0.28,0.28,0,0,0-.46.32,8.49,8.49,0,0,0,.75.93,7.53,7.53,0,0,0,.93.85l0,0a0.26,0.26,0,0,0,.37-0.07A0.31,0.31,0,0,0,6.58,23.74Z" transform="translate(-3 -2.67)"/><path class="cls-1" d="M3.89,39.41a0.28,0.28,0,1,0-.54.17,7.85,7.85,0,0,0,1.12,2.24,0.28,0.28,0,1,0,.46-0.33A7.27,7.27,0,0,1,3.89,39.41Z" transform="translate(-3 -2.67)"/><path class="cls-1" d="M8,38.46H8a0.28,0.28,0,0,0,.27-0.3c0-.08,0-0.15,0-0.23a2.89,2.89,0,0,1,.75-1.79,0.28,0.28,0,0,0-.43-0.37,3.45,3.45,0,0,0-.89,2.14c0,0.09,0,.19,0,0.28A0.28,0.28,0,0,0,8,38.46Z" transform="translate(-3 -2.67)"/><path class="cls-1" d="M10.6,34.76a0.28,0.28,0,0,0,.26.2H11a3.63,3.63,0,0,1,.94-0.14,5.22,5.22,0,0,1,1.32.13,0.28,0.28,0,0,0,.13-0.55,6,6,0,0,0-1.45-.15,4.15,4.15,0,0,0-1.09.17A0.28,0.28,0,0,0,10.6,34.76Z" transform="translate(-3 -2.67)"/><path class="cls-1" d="M13.39,29h0l2.42-.2a0.28,0.28,0,0,0,.26-0.3,0.27,0.27,0,0,0-.3-0.26l-2.43.2A0.28,0.28,0,0,0,13.39,29Z" transform="translate(-3 -2.67)"/><path class="cls-1" d="M8.65,29.92l0.12,0A10.08,10.08,0,0,1,11,29.23a0.28,0.28,0,0,0-.1-0.56,10.69,10.69,0,0,0-2.39.71A0.28,0.28,0,0,0,8.65,29.92Z" transform="translate(-3 -2.67)"/><path class="cls-1" d="M9.28,40.06a0.28,0.28,0,1,0-.35.44,3.55,3.55,0,0,0,2.05.73H11.4a0.28,0.28,0,0,0,.26-0.31,0.28,0.28,0,0,0-.31-0.26A3,3,0,0,1,9.28,40.06Z" transform="translate(-3 -2.67)"/><path class="cls-1" d="M8.65,44.16a6.81,6.81,0,0,1-2.08-1,0.28,0.28,0,0,0-.33.46,7.37,7.37,0,0,0,2.25,1.11H8.56A0.28,0.28,0,0,0,8.65,44.16Z" transform="translate(-3 -2.67)"/><path class="cls-1" d="M25.51,27.7l-2.43.09a0.28,0.28,0,0,0,0,.56h0l2.43-.09A0.28,0.28,0,0,0,25.8,28,0.27,0.27,0,0,0,25.51,27.7Z" transform="translate(-3 -2.67)"/><path class="cls-1" d="M20.65,27.91L18.22,28a0.28,0.28,0,0,0,0,.56h0l2.42-.14a0.28,0.28,0,0,0,.27-0.3A0.27,0.27,0,0,0,20.65,27.91Z" transform="translate(-3 -2.67)"/><path class="cls-1" d="M13.19,43.84a5.14,5.14,0,0,1-.83.32,6.89,6.89,0,0,1-1.41.25A0.28,0.28,0,0,0,11,45h0a7.37,7.37,0,0,0,1.52-.27,5.67,5.67,0,0,0,.92-0.35A0.28,0.28,0,1,0,13.19,43.84Z" transform="translate(-3 -2.67)"/><path class="cls-1" d="M16.33,40.14a0.29,0.29,0,0,0-.35.2,5.78,5.78,0,0,1-1,2.06,0.28,0.28,0,0,0,.44.35,6.34,6.34,0,0,0,1.12-2.26A0.28,0.28,0,0,0,16.33,40.14Z" transform="translate(-3 -2.67)"/><path class="cls-1" d="M15.56,35.65a0.28,0.28,0,1,0-.42.38,4,4,0,0,1,1,2,0.28,0.28,0,0,0,.27.23h0.06A0.28,0.28,0,0,0,16.66,38,4.53,4.53,0,0,0,15.56,35.65Z" transform="translate(-3 -2.67)"/><path class="cls-1" d="M13.33,15.19l-0.11,0a0.28,0.28,0,0,0-.14.37,2.14,2.14,0,0,1,.17,1,0.28,0.28,0,0,0,.26.3,0.28,0.28,0,0,0,.3-0.26,2.7,2.7,0,0,0-.22-1.32A0.28,0.28,0,0,0,13.33,15.19Z" transform="translate(-3 -2.67)"/><path class="cls-1" d="M3.57,18.14a7,7,0,0,0,.14,1.15A8,8,0,0,0,4,20.37a0.28,0.28,0,1,1-.53.19,8.49,8.49,0,0,1-.32-1.15A7.53,7.53,0,0,1,3,18.16V18.1a0.26,0.26,0,0,1,.27-0.26A0.31,0.31,0,0,1,3.57,18.14Z" transform="translate(-3 -2.67)"/><path class="cls-1" d="M3.89,15.78a0.28,0.28,0,1,1-.54-0.17,7.85,7.85,0,0,1,1.12-2.24,0.28,0.28,0,0,1,.46.33A7.27,7.27,0,0,0,3.89,15.78Z" transform="translate(-3 -2.67)"/><path class="cls-1" d="M8,16.72H8a0.28,0.28,0,0,1,.27.3c0,0.08,0,.15,0,0.23A2.89,2.89,0,0,0,9.06,19a0.28,0.28,0,1,1-.43.37,3.45,3.45,0,0,1-.89-2.14c0-.09,0-0.19,0-0.28A0.28,0.28,0,0,1,8,16.72Z" transform="translate(-3 -2.67)"/><path class="cls-1" d="M10.6,20.43a0.28,0.28,0,0,1,.26-0.2H11a3.63,3.63,0,0,0,.94.14,5.22,5.22,0,0,0,1.32-.13,0.28,0.28,0,0,1,.13.55,6,6,0,0,1-1.45.15,4.15,4.15,0,0,1-1.09-.17A0.28,0.28,0,0,1,10.6,20.43Z" transform="translate(-3 -2.67)"/><path class="cls-1" d="M13.39,26.21h0l2.42,0.2a0.28,0.28,0,0,1,.26.3,0.27,0.27,0,0,1-.3.26l-2.43-.2A0.28,0.28,0,0,1,13.39,26.21Z" transform="translate(-3 -2.67)"/><path class="cls-1" d="M8.65,25.27l0.12,0A10.08,10.08,0,0,0,11,26a0.28,0.28,0,0,1-.1.56,10.69,10.69,0,0,1-2.39-.71A0.28,0.28,0,0,1,8.65,25.27Z" transform="translate(-3 -2.67)"/><path class="cls-1" d="M9.28,15.12a0.28,0.28,0,1,1-.35-0.44A3.55,3.55,0,0,1,11,13.95H11.4a0.28,0.28,0,0,1,.26.31,0.28,0.28,0,0,1-.31.26A3,3,0,0,0,9.28,15.12Z" transform="translate(-3 -2.67)"/><path class="cls-1" d="M8.65,11a6.81,6.81,0,0,0-2.08,1,0.28,0.28,0,0,1-.33-0.46,7.37,7.37,0,0,1,2.25-1.11H8.56A0.28,0.28,0,0,1,8.65,11Z" transform="translate(-3 -2.67)"/><path class="cls-1" d="M35.23,27.7l-2.43,0a0.28,0.28,0,0,1,0-.56h0l2.43,0a0.28,0.28,0,0,1,.28.29A0.29,0.29,0,0,1,35.23,27.7Z" transform="translate(-3 -2.67)"/><path class="cls-1" d="M30.37,27.62l-2.43-.06a0.28,0.28,0,0,1,0-.56h0l2.43,0.06a0.28,0.28,0,0,1,.28.29A0.29,0.29,0,0,1,30.37,27.62Z" transform="translate(-3 -2.67)"/><path class="cls-1" d="M40.09,27.75l-2.43,0a0.28,0.28,0,0,1,0-.56h0l2.43,0a0.28,0.28,0,0,1,.28.28A0.29,0.29,0,0,1,40.09,27.75Z" transform="translate(-3 -2.67)"/><path class="cls-1" d="M25.51,27.48l-2.43-.09a0.28,0.28,0,0,1,0-.56h0l2.43,0.09a0.28,0.28,0,0,1,.27.29A0.27,0.27,0,0,1,25.51,27.48Z" transform="translate(-3 -2.67)"/><path class="cls-1" d="M20.65,27.28l-2.43-.14a0.28,0.28,0,0,1,0-.56h0l2.42,0.14a0.28,0.28,0,0,1,.27.3A0.27,0.27,0,0,1,20.65,27.28Z" transform="translate(-3 -2.67)"/><path class="cls-1" d="M13.19,11.34A5.14,5.14,0,0,0,12.36,11,6.89,6.89,0,0,0,11,10.77a0.28,0.28,0,0,1,0-.56h0a7.37,7.37,0,0,1,1.52.27,5.67,5.67,0,0,1,.92.35A0.28,0.28,0,1,1,13.19,11.34Z" transform="translate(-3 -2.67)"/><path class="cls-1" d="M16.33,15a0.29,0.29,0,0,1-.35-0.2,5.78,5.78,0,0,0-1-2.06,0.28,0.28,0,0,1,.44-0.35,6.34,6.34,0,0,1,1.12,2.26A0.28,0.28,0,0,1,16.33,15Z" transform="translate(-3 -2.67)"/><path class="cls-1" d="M15.56,19.53a0.28,0.28,0,0,1-.42-0.38,4,4,0,0,0,1-2,0.28,0.28,0,0,1,.27-0.23h0.06a0.28,0.28,0,0,1,.23.33A4.53,4.53,0,0,1,15.56,19.53Z" transform="translate(-3 -2.67)"/><path class="cls-1" d="M124.51,11.12a0.35,0.35,0,0,1-.35-0.31,3.33,3.33,0,0,1,.21-1.65,0.35,0.35,0,1,1,.65.27,2.64,2.64,0,0,0-.16,1.31,0.35,0.35,0,0,1-.31.38h0Z" transform="translate(-3 -2.67)"/><path class="cls-1" d="M44,27.83a0.35,0.35,0,0,1,0-.7l3-.05a0.35,0.35,0,1,1,0,.7l-3,.05h0Zm6-.13a0.35,0.35,0,0,1,0-.7l3-.09a0.32,0.32,0,0,1,.36.34,0.35,0.35,0,0,1-.34.36l-3,.09h0Zm6-.2a0.35,0.35,0,0,1,0-.7l3-.12a0.35,0.35,0,1,1,0,.7l-3,.12h0Zm6-.25a0.35,0.35,0,0,1,0-.7l3-.14a0.35,0.35,0,0,1,.37.33,0.35,0.35,0,0,1-.33.37l-3,.14h0ZM68,27a0.35,0.35,0,0,1,0-.7l3-.16a0.36,0.36,0,0,1,.37.33,0.35,0.35,0,0,1-.33.37l-3,.16h0Zm6-.32a0.35,0.35,0,0,1,0-.7l3-.17a0.36,0.36,0,0,1,.37.33,0.35,0.35,0,0,1-.33.37l-3,.17h0Zm6-.33a0.35,0.35,0,0,1,0-.7l3-.15a0.35,0.35,0,0,1,.37.33,0.35,0.35,0,0,1-.33.37l-3,.15h0Zm6-.29a0.35,0.35,0,0,1,0-.7l3-.14a0.35,0.35,0,1,1,0,.7l-3,.14h0Zm6-.28a0.35,0.35,0,0,1,0-.7l3-.14a0.36,0.36,0,0,1,.37.33,0.35,0.35,0,0,1-.33.37l-3,.14h0Zm6-.29a0.35,0.35,0,0,1,0-.7l3-.16a0.37,0.37,0,0,1,.37.33,0.35,0.35,0,0,1-.33.37l-3,.16h0Zm6-.32a0.35,0.35,0,0,1,0-.7l3-.18a0.35,0.35,0,0,1,0,.7l-3,.18h0Zm6-.39a0.35,0.35,0,0,1,0-.7l3-.23a0.35,0.35,0,0,1,.38.32,0.35,0.35,0,0,1-.32.38l-3,.23h0Zm6-.48a0.35,0.35,0,0,1,0-.7l3-.28a0.35,0.35,0,0,1,.07.7l-3,.28h0Zm6-.6a0.35,0.35,0,0,1,0-.7l3-.35a0.35,0.35,0,0,1,.09.69l-3,.35h0Zm6-.78a0.35,0.35,0,0,1-.07-0.69,12.59,12.59,0,0,0,2.77-.93,0.35,0.35,0,0,1,.3.63,13.33,13.33,0,0,1-2.92,1h-0.07Zm5.38-2.57a0.35,0.35,0,0,1-.22-0.62,10.47,10.47,0,0,0,2-2.15,0.35,0.35,0,1,1,.58.39,11.17,11.17,0,0,1-2.09,2.29A0.35,0.35,0,0,1,133.49,20.31ZM126.3,16a7.21,7.21,0,0,1-1.37-.13,0.35,0.35,0,1,1,.13-0.69,6.64,6.64,0,0,0,1.65.1,4.46,4.46,0,0,0,1.16-.22,0.35,0.35,0,1,1,.22.67,5.15,5.15,0,0,1-1.34.25H126.3Zm10.52-.65-0.1,0a0.35,0.35,0,0,1-.23-0.44,10.08,10.08,0,0,0,.32-1.34,8.69,8.69,0,0,0,.12-1.43,0.39,0.39,0,0,1,.35-0.39,0.31,0.31,0,0,1,.35.3v0.09a9.4,9.4,0,0,1-.13,1.55,10.78,10.78,0,0,1-.34,1.44A0.35,0.35,0,0,1,136.82,15.39Zm-14.45-.84a0.35,0.35,0,0,1-.25-0.1,5.62,5.62,0,0,1-1.45-2.81,0.35,0.35,0,0,1,.27-0.41,0.35,0.35,0,0,1,.41.27A4.92,4.92,0,0,0,122.62,14,0.35,0.35,0,0,1,122.37,14.55Zm8.06-.44a0.35,0.35,0,0,1-.27-0.57,3.6,3.6,0,0,0,.85-2.26c0-.09,0-0.19,0-0.28a0.35,0.35,0,0,1,.32-0.38,0.35,0.35,0,0,1,.38.32c0,0.11,0,.23,0,0.34a4.29,4.29,0,0,1-1,2.7A0.35,0.35,0,0,1,130.43,14.1Zm6.33-4.63a0.35,0.35,0,0,1-.33-0.23A9,9,0,0,0,135,6.71a0.35,0.35,0,0,1,.55-0.43A9.76,9.76,0,0,1,137.08,9a0.35,0.35,0,0,1-.21.45Zm-15.69-.56H121a0.35,0.35,0,0,1-.26-0.42A7.87,7.87,0,0,1,122,5.64a0.35,0.35,0,1,1,.57.41,7.16,7.16,0,0,0-1.17,2.6A0.35,0.35,0,0,1,121.06,8.92Zm8.87-.16a0.35,0.35,0,0,1-.21-0.07A3.76,3.76,0,0,0,127.12,8a0.35,0.35,0,0,1-.39-0.31A0.35,0.35,0,0,1,127,7.33a4.49,4.49,0,0,1,3.1.79A0.35,0.35,0,0,1,129.93,8.76Zm3.19-4a0.35,0.35,0,0,1-.19-0.06,8.43,8.43,0,0,0-2.62-1.18,0.35,0.35,0,1,1,.17-0.68,9.15,9.15,0,0,1,2.84,1.27A0.35,0.35,0,0,1,133.12,4.8Zm-8.59-.58a0.35,0.35,0,0,1-.17-0.66,7,7,0,0,1,1.13-.48,9.26,9.26,0,0,1,1.87-.41,0.35,0.35,0,0,1,.39.31,0.35,0.35,0,0,1-.31.39,8.5,8.5,0,0,0-1.73.38,6.21,6.21,0,0,0-1,.43A0.35,0.35,0,0,1,124.53,4.22Z" transform="translate(-3 -2.67)"/><path class="cls-1" d="M39.38,27.88a0.35,0.35,0,0,1,0-.7h1.5a0.37,0.37,0,0,1,.35.35,0.35,0.35,0,0,1-.35.35h-1.5Z" transform="translate(-3 -2.67)"/><path class="cls-1" d="M124.7,46.1a0.35,0.35,0,0,1-.32-0.21,3.35,3.35,0,0,1-.21-1.65,0.34,0.34,0,0,1,.38-0.31,0.35,0.35,0,0,1,.31.38,2.66,2.66,0,0,0,.16,1.31,0.35,0.35,0,0,1-.19.46Z" transform="translate(-3 -2.67)"/><path class="cls-1" d="M127.4,52.38h0a9.24,9.24,0,0,1-1.87-.41,6.93,6.93,0,0,1-1.13-.48,0.35,0.35,0,0,1,.33-0.62,6.16,6.16,0,0,0,1,.43,8.55,8.55,0,0,0,1.73.38A0.35,0.35,0,0,1,127.4,52.38Zm3-.21a0.35,0.35,0,0,1-.09-0.69,8.45,8.45,0,0,0,2.63-1.18,0.35,0.35,0,0,1,.39.58,9.13,9.13,0,0,1-2.84,1.27h-0.09Zm-8.1-2.61a0.35,0.35,0,0,1-.28-0.14,7.83,7.83,0,0,1-1.29-2.86,0.35,0.35,0,1,1,.68-0.15,7.13,7.13,0,0,0,1.17,2.6A0.35,0.35,0,0,1,122.28,49.57Zm13-.66a0.35,0.35,0,0,1-.28-0.56,9,9,0,0,0,1.39-2.53,0.35,0.35,0,0,1,.66.23,9.74,9.74,0,0,1-1.49,2.73A0.35,0.35,0,0,1,135.31,48.91Zm-7.76-1.16a4.5,4.5,0,0,1-.53,0,0.35,0.35,0,0,1,.08-0.7,3.76,3.76,0,0,0,2.61-.65,0.35,0.35,0,1,1,.41.57A4.41,4.41,0,0,1,127.55,47.75Zm3.79-3.3h0a0.35,0.35,0,0,1-.32-0.38c0-.1,0-0.19,0-0.29a3.58,3.58,0,0,0-.85-2.25,0.35,0.35,0,0,1,.54-0.44,4.27,4.27,0,0,1,1,2.69c0,0.12,0,.23,0,0.35A0.35,0.35,0,0,1,131.35,44.45ZM121,43.85h-0.07a0.35,0.35,0,0,1-.27-0.42,5.62,5.62,0,0,1,1.46-2.81,0.35,0.35,0,0,1,.5.49,4.92,4.92,0,0,0-1.27,2.46A0.35,0.35,0,0,1,121,43.85Zm16.26-.56a0.32,0.32,0,0,1-.35-0.31V42.9a8.71,8.71,0,0,0-.12-1.43,10.08,10.08,0,0,0-.32-1.35,0.35,0.35,0,1,1,.67-0.21,10.73,10.73,0,0,1,.34,1.44,9.44,9.44,0,0,1,.13,1.55A0.38,0.38,0,0,1,137.28,43.29ZM128,40l-0.11,0a4.45,4.45,0,0,0-1.16-.22,6.6,6.6,0,0,0-1.64.1,0.35,0.35,0,1,1-.13-0.69,7.46,7.46,0,0,1,1.81-.11,5.18,5.18,0,0,1,1.35.25A0.35,0.35,0,0,1,128,40Zm7.53-2.32a0.35,0.35,0,0,1-.29-0.15,10.49,10.49,0,0,0-2-2.15,0.35,0.35,0,1,1,.45-0.54,11.17,11.17,0,0,1,2.09,2.29A0.35,0.35,0,0,1,135.51,37.66ZM131,33.83a0.36,0.36,0,0,1-.15,0,12.54,12.54,0,0,0-2.77-.93,0.35,0.35,0,0,1,.15-0.69,13.26,13.26,0,0,1,2.92,1A0.35,0.35,0,0,1,131,33.83Zm-5.83-1.39h0l-3-.35a0.35,0.35,0,1,1,.08-0.7l3,0.35A0.35,0.35,0,0,1,125.13,32.45Zm-6-.67h0l-3-.28a0.35,0.35,0,0,1-.32-0.38,0.36,0.36,0,0,1,.38-0.32l3,0.28A0.35,0.35,0,0,1,119.15,31.78Zm-6-.54h0l-3-.23a0.35,0.35,0,0,1-.32-0.37,0.34,0.34,0,0,1,.37-0.32l3,0.23A0.35,0.35,0,0,1,113.15,31.24Zm-6-.43h0l-3-.18a0.35,0.35,0,0,1-.33-0.37,0.36,0.36,0,0,1,.37-0.33l3,0.18A0.35,0.35,0,0,1,107.14,30.81Zm-6-.35h0l-3-.16a0.35,0.35,0,0,1-.33-0.37,0.36,0.36,0,0,1,.37-0.33l3,0.16A0.35,0.35,0,0,1,101.13,30.46Zm-6-.3h0l-3-.14a0.35,0.35,0,0,1-.33-0.37,0.37,0.37,0,0,1,.37-0.33l3,0.14A0.35,0.35,0,0,1,95.12,30.15Zm-6-.28h0l-3-.14a0.35,0.35,0,0,1-.33-0.37A0.36,0.36,0,0,1,86.11,29l3,0.14A0.35,0.35,0,0,1,89.1,29.88Zm-6-.28h0l-3-.15a0.35,0.35,0,0,1-.33-0.37,0.36,0.36,0,0,1,.37-0.33l3,0.15A0.35,0.35,0,0,1,83.08,29.6Zm-6-.31h0l-3-.17a0.35,0.35,0,0,1-.33-0.37,0.37,0.37,0,0,1,.37-0.33l3,0.17A0.35,0.35,0,0,1,77.07,29.28Zm-6-.33h0l-3-.16a0.35,0.35,0,0,1,0-.7l3,0.16A0.35,0.35,0,0,1,71.06,29Zm-6-.31h0l-3-.14a0.35,0.35,0,0,1-.33-0.37A0.34,0.34,0,0,1,62,27.8l3,0.14A0.35,0.35,0,0,1,65,28.64Zm-6-.27h0l-3-.12a0.35,0.35,0,0,1,0-.7l3,0.12A0.35,0.35,0,0,1,59,28.37Zm-6-.22h0l-3-.09a0.35,0.35,0,0,1-.34-0.36A0.37,0.37,0,0,1,50,27.35l3,0.09A0.35,0.35,0,0,1,53,28.14ZM47,28h0l-3-.05a0.35,0.35,0,0,1,0-.7h0l3,0.05A0.35,0.35,0,0,1,47,28Z" transform="translate(-3 -2.67)"/><path class="cls-1" d="M40.88,27.89h-1.5a0.35,0.35,0,0,1,0-.7h1.5A0.35,0.35,0,0,1,40.88,27.89Z" transform="translate(-3 -2.67)"/><path class="cls-1" d="M163.27,11.12h0a0.35,0.35,0,0,1-.31-0.38,2.65,2.65,0,0,0-.16-1.31,0.35,0.35,0,0,1,.65-0.27,3.34,3.34,0,0,1,.21,1.65A0.35,0.35,0,0,1,163.27,11.12Z" transform="translate(-3 -2.67)"/><path class="cls-1" d="M243.81,27.83h0l-3-.05a0.35,0.35,0,0,1-.34-0.36,0.36,0.36,0,0,1,.36-0.34l3,0.05A0.35,0.35,0,0,1,243.81,27.83Zm-6-.13h0l-3-.09a0.35,0.35,0,0,1-.34-0.36,0.32,0.32,0,0,1,.36-0.34l3,0.09A0.35,0.35,0,0,1,237.78,27.7Zm-6-.2h0l-3-.12a0.35,0.35,0,0,1-.33-0.36,0.34,0.34,0,0,1,.36-0.33l3,0.12A0.35,0.35,0,0,1,231.76,27.51Zm-6-.25h0l-3-.14a0.35,0.35,0,0,1-.33-0.37,0.36,0.36,0,0,1,.37-0.33l3,0.14A0.35,0.35,0,0,1,225.75,27.26Zm-6-.29h0l-3-.16a0.35,0.35,0,0,1-.33-0.37,0.36,0.36,0,0,1,.37-0.33l3,0.16A0.35,0.35,0,0,1,219.73,27Zm-6-.32h0l-3-.17a0.35,0.35,0,0,1-.33-0.37,0.37,0.37,0,0,1,.37-0.33l3,0.17A0.35,0.35,0,0,1,213.72,26.64Zm-6-.33h0l-3-.15a0.35,0.35,0,0,1-.33-0.37,0.36,0.36,0,0,1,.37-0.33l3,0.15A0.35,0.35,0,0,1,207.71,26.31Zm-6-.29h0l-3-.14a0.35,0.35,0,1,1,0-.7l3,0.14A0.35,0.35,0,0,1,201.69,26Zm-6-.28h0l-3-.14a0.35,0.35,0,0,1-.33-0.37,0.36,0.36,0,0,1,.37-0.33l3,0.14A0.35,0.35,0,0,1,195.67,25.74Zm-6-.29h0l-3-.16a0.35,0.35,0,0,1-.33-0.37,0.37,0.37,0,0,1,.37-0.33l3,0.16A0.35,0.35,0,0,1,189.66,25.45Zm-6-.32h0l-3-.18a0.35,0.35,0,0,1-.33-0.37,0.36,0.36,0,0,1,.37-0.33l3,0.18A0.35,0.35,0,0,1,183.64,25.13Zm-6-.39h0l-3-.23a0.35,0.35,0,0,1-.32-0.38,0.36,0.36,0,0,1,.38-0.32l3,0.23A0.35,0.35,0,0,1,177.63,24.74Zm-6-.48h0l-3-.28a0.35,0.35,0,0,1,.07-0.7l3,0.28A0.35,0.35,0,0,1,171.63,24.26Zm-6-.6h0l-3-.35a0.35,0.35,0,0,1,.09-0.69l3,0.35A0.35,0.35,0,0,1,165.64,23.66Zm-6-.78h-0.07a13.25,13.25,0,0,1-2.92-1,0.35,0.35,0,0,1,.3-0.63,12.54,12.54,0,0,0,2.77.93A0.35,0.35,0,0,1,159.67,22.88Zm-5.38-2.57a0.35,0.35,0,0,1-.22-0.08A11.19,11.19,0,0,1,152,17.94a0.35,0.35,0,1,1,.58-0.39,10.5,10.5,0,0,0,2,2.15A0.35,0.35,0,0,1,154.29,20.31ZM161.48,16H161a5.18,5.18,0,0,1-1.34-.25,0.35,0.35,0,0,1,.22-0.67,4.5,4.5,0,0,0,1.16.22,6.63,6.63,0,0,0,1.65-.1,0.35,0.35,0,1,1,.13.69A7.21,7.21,0,0,1,161.48,16ZM151,15.39a0.35,0.35,0,0,1-.33-0.25,10.74,10.74,0,0,1-.34-1.44,9.44,9.44,0,0,1-.13-1.55V12.07a0.35,0.35,0,0,1,.35-0.34h0a0.35,0.35,0,0,1,.34.36H150.5l0.35,0.08a8.74,8.74,0,0,0,.12,1.43,10,10,0,0,0,.32,1.34,0.35,0.35,0,0,1-.23.44Zm14.45-.84a0.35,0.35,0,0,1-.25-0.6,4.92,4.92,0,0,0,1.27-2.47,0.36,0.36,0,0,1,.41-0.27,0.35,0.35,0,0,1,.27.41,5.61,5.61,0,0,1-1.45,2.81A0.35,0.35,0,0,1,165.41,14.55Zm-8.06-.44a0.35,0.35,0,0,1-.27-0.13,4.29,4.29,0,0,1-1-2.7q0-.17,0-0.34a0.35,0.35,0,0,1,.38-0.32,0.35,0.35,0,0,1,.32.38c0,0.09,0,.19,0,0.28a3.6,3.6,0,0,0,.85,2.26A0.35,0.35,0,0,1,157.35,14.11ZM151,9.48l-0.12,0A0.35,0.35,0,0,1,150.7,9a9.75,9.75,0,0,1,1.5-2.73,0.35,0.35,0,1,1,.55.43,9.05,9.05,0,0,0-1.39,2.53A0.35,0.35,0,0,1,151,9.48Zm15.69-.56a0.35,0.35,0,0,1-.34-0.27A7.16,7.16,0,0,0,165.21,6a0.35,0.35,0,1,1,.57-0.41,7.87,7.87,0,0,1,1.29,2.86,0.35,0.35,0,0,1-.26.42h-0.08Zm-8.87-.16a0.35,0.35,0,0,1-.21-0.63,4.48,4.48,0,0,1,3.1-.79,0.35,0.35,0,0,1-.08.7,3.76,3.76,0,0,0-2.6.66A0.35,0.35,0,0,1,157.85,8.76Zm-3.19-4a0.35,0.35,0,0,1-.2-0.64,9.17,9.17,0,0,1,2.84-1.27,0.35,0.35,0,0,1,.17.68,8.46,8.46,0,0,0-2.63,1.18A0.35,0.35,0,0,1,154.66,4.8Zm8.59-.58a0.35,0.35,0,0,1-.17,0,6.18,6.18,0,0,0-1-.43,8.47,8.47,0,0,0-1.73-.38,0.35,0.35,0,1,1,.08-0.7,9.18,9.18,0,0,1,1.87.41,6.88,6.88,0,0,1,1.13.48A0.35,0.35,0,0,1,163.25,4.22Z" transform="translate(-3 -2.67)"/><path class="cls-1" d="M248.4,27.88h-1.5a0.35,0.35,0,0,1-.35-0.35,0.35,0.35,0,0,1,.35-0.35h1.5A0.35,0.35,0,0,1,248.4,27.88Z" transform="translate(-3 -2.67)"/><path class="cls-1" d="M163.08,46.1l-0.13,0a0.35,0.35,0,0,1-.19-0.46,2.66,2.66,0,0,0,.16-1.31,0.35,0.35,0,0,1,.31-0.38,0.34,0.34,0,0,1,.38.31,3.35,3.35,0,0,1-.21,1.65A0.35,0.35,0,0,1,163.08,46.1Z" transform="translate(-3 -2.67)"/><path class="cls-1" d="M160.38,52.38a0.35,0.35,0,0,1,0-.7,8.54,8.54,0,0,0,1.73-.38,6.39,6.39,0,0,0,1-.43,0.35,0.35,0,1,1,.33.62,7.15,7.15,0,0,1-1.12.48,9.25,9.25,0,0,1-1.87.41h0Zm-3-.21h-0.09a9.13,9.13,0,0,1-2.84-1.27,0.35,0.35,0,0,1,.39-0.58,8.45,8.45,0,0,0,2.63,1.18A0.35,0.35,0,0,1,157.4,52.17Zm8.1-2.61a0.35,0.35,0,0,1-.28-0.55,7.16,7.16,0,0,0,1.17-2.6,0.35,0.35,0,1,1,.68.15,7.84,7.84,0,0,1-1.29,2.85A0.35,0.35,0,0,1,165.5,49.57Zm-13-.66a0.35,0.35,0,0,1-.28-0.13A9.74,9.74,0,0,1,150.7,46a0.35,0.35,0,0,1,.66-0.23,9,9,0,0,0,1.39,2.53A0.35,0.35,0,0,1,152.47,48.91Zm7.76-1.16a4.41,4.41,0,0,1-2.58-.81,0.35,0.35,0,0,1,.41-0.57,3.76,3.76,0,0,0,2.61.65,0.35,0.35,0,0,1,.39.3,0.35,0.35,0,0,1-.31.39A4.5,4.5,0,0,1,160.23,47.75Zm-3.79-3.3a0.35,0.35,0,0,1-.35-0.32c0-.12,0-0.24,0-0.35a4.28,4.28,0,0,1,1-2.69,0.35,0.35,0,0,1,.54.44,3.59,3.59,0,0,0-.85,2.25c0,0.1,0,.19,0,0.29a0.35,0.35,0,0,1-.32.38h0Zm10.34-.6a0.35,0.35,0,0,1-.34-0.28,4.92,4.92,0,0,0-1.27-2.46,0.35,0.35,0,0,1,.5-0.49,5.62,5.62,0,0,1,1.46,2.81,0.35,0.35,0,0,1-.27.42h-0.07Zm-16.27-.56a0.32,0.32,0,0,1-.35-0.31V42.9a9.44,9.44,0,0,1,.13-1.55,10.73,10.73,0,0,1,.34-1.44,0.35,0.35,0,1,1,.67.21,10.08,10.08,0,0,0-.32,1.35,8.73,8.73,0,0,0-.12,1.44A0.39,0.39,0,0,1,150.5,43.29ZM159.8,40a0.35,0.35,0,0,1-.11-0.68A5.19,5.19,0,0,1,161,39a7.47,7.47,0,0,1,1.81.11,0.35,0.35,0,0,1-.13.69,6.6,6.6,0,0,0-1.64-.1,4.5,4.5,0,0,0-1.16.22Zm-7.53-2.32a0.35,0.35,0,0,1-.29-0.55,11.18,11.18,0,0,1,2.09-2.29,0.35,0.35,0,1,1,.45.54,10.51,10.51,0,0,0-2,2.15A0.35,0.35,0,0,1,152.27,37.66Zm4.55-3.83a0.35,0.35,0,0,1-.15-0.67,13.25,13.25,0,0,1,2.92-1,0.35,0.35,0,0,1,.15.69,12.54,12.54,0,0,0-2.77.93A0.36,0.36,0,0,1,156.82,33.83Zm5.83-1.39a0.35,0.35,0,0,1,0-.7l3-.35a0.34,0.34,0,0,1,.39.31,0.35,0.35,0,0,1-.31.39l-3,.35h0Zm6-.67a0.35,0.35,0,0,1,0-.7l3-.28a0.36,0.36,0,0,1,.38.32,0.35,0.35,0,0,1-.32.38l-3,.28h0Zm6-.54a0.35,0.35,0,0,1,0-.7l3-.23a0.35,0.35,0,1,1,.05.7l-3,.23h0Zm6-.43a0.35,0.35,0,0,1,0-.7l3-.18a0.37,0.37,0,0,1,.37.33,0.35,0.35,0,0,1-.33.37l-3,.18h0Zm6-.35a0.35,0.35,0,0,1,0-.7l3-.16a0.37,0.37,0,0,1,.37.33,0.35,0.35,0,0,1-.33.37l-3,.16h0Zm6-.3a0.35,0.35,0,0,1,0-.7l3-.14a0.36,0.36,0,0,1,.37.33,0.35,0.35,0,0,1-.33.37l-3,.14h0Zm6-.28a0.35,0.35,0,0,1,0-.7l3-.14a0.36,0.36,0,0,1,.37.33,0.35,0.35,0,0,1-.33.37l-3,.14h0Zm6-.28a0.35,0.35,0,0,1,0-.7l3-.15a0.36,0.36,0,0,1,.37.33,0.35,0.35,0,0,1-.33.37l-3,.15h0Zm6-.31a0.35,0.35,0,0,1,0-.7l3-.17a0.36,0.36,0,0,1,.37.33,0.35,0.35,0,0,1-.33.37l-3,.17h0Zm6-.33a0.35,0.35,0,0,1,0-.7l3-.16a0.36,0.36,0,0,1,.37.33,0.35,0.35,0,0,1-.33.37l-3,.16h0Zm6-.31a0.35,0.35,0,0,1,0-.7l3-.14a0.35,0.35,0,1,1,0,.7l-3,.14h0Zm6-.27a0.35,0.35,0,0,1,0-.7l3-.12a0.34,0.34,0,0,1,.36.34,0.35,0.35,0,0,1-.34.36l-3,.12h0Zm6-.22a0.35,0.35,0,0,1,0-.7l3-.09a0.35,0.35,0,0,1,0,.7l-3,.09h0Zm6-.16a0.35,0.35,0,0,1,0-.7l3-.05h0a0.35,0.35,0,0,1,0,.7l-3,.05h0Z" transform="translate(-3 -2.67)"/><path class="cls-1" d="M246.9,27.89a0.35,0.35,0,0,1,0-.7h1.5a0.35,0.35,0,0,1,0,.7h-1.5Z" transform="translate(-3 -2.67)"/><path class="cls-2" d="M276.15,33.14V9h1.11c5.73,0,9.48,6.2,9.46,9.86a8.9,8.9,0,0,1-.76,3.34,7.48,7.48,0,0,1-2,2.58l-6.81,7.26Z" transform="translate(-3 -2.67)"/><path class="cls-3" d="M276.15,9v24.1L270,39.81l-6-5.92V8.77a9.54,9.54,0,0,1,6,3.5A9,9,0,0,1,276.15,9Z" transform="translate(-3 -2.67)"/><path class="cls-4" d="M264,8.77V33.89l-1.11-1.11-7.65-7.44a10.75,10.75,0,0,1-2-6.44c0.19-4.91,4.27-10.23,9.46-10.23A6.85,6.85,0,0,1,264,8.77Z" transform="translate(-3 -2.67)"/><path class="cls-5" d="M276.15,33.14l1-1.11,6.82-7.28a7.48,7.48,0,0,0,2-2.57,8.9,8.9,0,0,0,.76-3.34c0-3.67-3.73-9.86-9.46-9.86h-1.11A9,9,0,0,0,270,12.28a9.54,9.54,0,0,0-6-3.5,6.85,6.85,0,0,0-1.35-.11c-5.18,0-9.27,5.33-9.46,10.25a10.75,10.75,0,0,0,2,6.44l7.58,7.42,1.11,1.11,6,6Z" transform="translate(-3 -2.67)"/><path class="cls-2" d="M147.06,33.82V21.43h0.57c2.95,0,4.87,3.19,4.86,5.07a4.57,4.57,0,0,1-.39,1.72,3.84,3.84,0,0,1-1,1.33l-3.5,3.73Z" transform="translate(-3 -2.67)"/><path class="cls-3" d="M147.06,21.43V33.82l-3.19,3.43-3.07-3V21.29a4.91,4.91,0,0,1,3.09,1.8A4.64,4.64,0,0,1,147.06,21.43Z" transform="translate(-3 -2.67)"/><path class="cls-4" d="M140.81,21.29V34.21l-0.57-.57-3.93-3.83a5.52,5.52,0,0,1-1-3.31c0.1-2.52,2.2-5.26,4.86-5.26A3.52,3.52,0,0,1,140.81,21.29Z" transform="translate(-3 -2.67)"/><path class="cls-6" d="M147.06,33.82l0.5-.57,3.51-3.74a3.84,3.84,0,0,0,1-1.32,4.57,4.57,0,0,0,.39-1.72c0-1.89-1.92-5.07-4.86-5.07h-0.57a4.64,4.64,0,0,0-3.2,1.69,4.91,4.91,0,0,0-3.07-1.8,3.52,3.52,0,0,0-.69-0.06c-2.66,0-4.76,2.74-4.86,5.27a5.52,5.52,0,0,0,1,3.31l3.89,3.81,0.57,0.57,3.09,3.06Z" transform="translate(-3 -2.67)"/><path class="cls-2" d="M399.23,33.82V21.43h0.57c2.95,0,4.87,3.19,4.86,5.07a4.57,4.57,0,0,1-.39,1.72,3.84,3.84,0,0,1-1,1.33l-3.5,3.73Z" transform="translate(-3 -2.67)"/><path class="cls-3" d="M399.23,21.43V33.82L396,37.25l-3.07-3V21.29a4.91,4.91,0,0,1,3.09,1.8A4.64,4.64,0,0,1,399.23,21.43Z" transform="translate(-3 -2.67)"/><path class="cls-4" d="M393,21.29V34.21l-0.57-.57-3.93-3.83a5.52,5.52,0,0,1-1-3.31c0.1-2.52,2.2-5.26,4.86-5.26A3.52,3.52,0,0,1,393,21.29Z" transform="translate(-3 -2.67)"/><path class="cls-6" d="M399.23,33.82l0.5-.57,3.51-3.74a3.84,3.84,0,0,0,1-1.32,4.57,4.57,0,0,0,.39-1.72c0-1.89-1.92-5.07-4.86-5.07h-0.57A4.64,4.64,0,0,0,396,23.1a4.91,4.91,0,0,0-3.07-1.8,3.52,3.52,0,0,0-.69-0.06c-2.66,0-4.76,2.74-4.86,5.27a5.52,5.52,0,0,0,1,3.31l3.89,3.81,0.57,0.57L396,37.26Z" transform="translate(-3 -2.67)"/></svg>