<svg id="Layer_1" data-name="Layer 1" xmlns="http://www.w3.org/2000/svg" viewBox="0 0 30.37 28.28"><defs><style>.cls-1{fill:#ff1d25;}.cls-2{fill:#fff;}.cls-3{fill:#39b54a;}.cls-4{fill:none;stroke:#000;stroke-miterlimit:10;stroke-width:0.21px;}</style></defs><title>icon</title><path class="cls-1" d="M21.93,22.85V1.19c0.34,0,.68,0,1,0,5.15,0,8.52,5.57,8.5,8.86a8,8,0,0,1-.68,3,6.72,6.72,0,0,1-1.83,2.32L22.8,21.9Z" transform="translate(-1.18 -0.75)"/><path class="cls-2" d="M21.93,1.19V22.85l-5.57,6L11,23.53V0.95a8.58,8.58,0,0,1,5.4,3.15A8.12,8.12,0,0,1,21.93,1.19Z" transform="translate(-1.18 -0.75)"/><path class="cls-3" d="M11,0.95V23.53l-1-1L3.12,15.84a9.66,9.66,0,0,1-1.83-5.79C1.46,5.64,5.13.85,9.79,0.85A6.16,6.16,0,0,1,11,.95Z" transform="translate(-1.18 -0.75)"/><path class="cls-4" d="M21.93,22.85l0.88-1,6.13-6.54A6.72,6.72,0,0,0,30.77,13a8,8,0,0,0,.68-3c0-3.3-3.35-8.86-8.5-8.86-0.34,0-.68,0-1,0A8.12,8.12,0,0,0,16.36,4.1,8.58,8.58,0,0,0,11,.95,6.16,6.16,0,0,0,9.79.85c-4.66,0-8.33,4.79-8.5,9.21a9.66,9.66,0,0,0,1.83,5.79l6.81,6.67,1,1,5.4,5.35Z" transform="translate(-1.18 -0.75)"/></svg>