<?xml version="1.0" encoding="utf-8"?>
<!-- Generator: Adobe Illustrator 19.2.0, SVG Export Plug-In . SVG Version: 6.00 Build 0)  -->
<svg version="1.1" id="footer" xmlns="http://www.w3.org/2000/svg" xmlns:xlink="http://www.w3.org/1999/xlink" x="0px" y="0px"
	 viewBox="0 0 18.3 18.3" style="enable-background:new 0 0 18.3 18.3;" xml:space="preserve">
<style type="text/css">
	.st0{fill:#262626;}
</style>
<title>Insta-Icon</title>
<path class="st0" d="M16.2,7.8h-1.6c0.8,3-1,6.1-4,6.9c-3,0.8-6.1-1-6.9-4c-0.2-0.9-0.2-1.9,0-2.8H2.1v7.8c0,0.4,0.3,0.7,0.7,0.7
	h12.7c0.4,0,0.7-0.3,0.7-0.7L16.2,7.8L16.2,7.8z M16.2,2.8c0-0.4-0.3-0.7-0.7-0.7h-2.1c-0.4,0-0.7,0.3-0.7,0.7v2.1
	c0,0.4,0.3,0.7,0.7,0.7h2.1c0.4,0,0.7-0.3,0.7-0.7L16.2,2.8L16.2,2.8z M9.2,5.6c-1.9,0-3.5,1.6-3.5,3.5c0,1.9,1.6,3.5,3.5,3.5
	c1.9,0,3.5-1.6,3.5-3.5S11.1,5.6,9.2,5.6L9.2,5.6 M16.2,18.3H2.1c-1.2,0-2.1-0.9-2.1-2.1l0,0V2.1C0,0.9,0.9,0,2.1,0h0h14.1
	c1.2,0,2.1,0.9,2.1,2.1l0,0v14.1C18.4,17.4,17.4,18.3,16.2,18.3L16.2,18.3"/>
</svg>
