<svg id="footer" xmlns="http://www.w3.org/2000/svg" viewBox="0 0 18.34 18.34"><defs><style>.cls-1{fill:#fff;fill-rule:evenodd;}</style></defs><title>Insta-Icon</title><path class="cls-1" d="M1058.82,3552.08h-1.6a5.64,5.64,0,1,1-10.92,0h-1.6v7.76a0.71,0.71,0,0,0,.71.7h12.7a0.71,0.71,0,0,0,.71-0.7v-7.76Zm0-4.94a0.71,0.71,0,0,0-.71-0.71H1056a0.71,0.71,0,0,0-.71.71v2.12a0.71,0.71,0,0,0,.71.71h2.12a0.71,0.71,0,0,0,.71-0.71v-2.12Zm-7.05,2.82a3.53,3.53,0,1,0,3.53,3.53,3.53,3.53,0,0,0-3.53-3.53m7.05,12.7h-14.11a2.12,2.12,0,0,1-2.12-2.12v-14.11a2.12,2.12,0,0,1,2.12-2.12h14.11a2.12,2.12,0,0,1,2.12,2.12v14.11a2.12,2.12,0,0,1-2.12,2.12" transform="translate(-1042.59 -3544.32)"/></svg>