<svg id="Layer_1" data-name="Layer 1" xmlns="http://www.w3.org/2000/svg" viewBox="0 0 211.61 37.46"><defs><style>.cls-1{fill:#fff;}.cls-2{fill:red;}.cls-3{fill:#7ac943;}.cls-4{fill:none;stroke:#000;stroke-linecap:round;stroke-linejoin:round;stroke-width:0;}</style></defs><title>logo</title><path class="cls-1" d="M213.44,40.63A4.56,4.56,0,1,1,218,45,4.32,4.32,0,0,1,213.44,40.63Zm7.81,0A3.25,3.25,0,1,0,218,43.81,3.1,3.1,0,0,0,221.25,40.63Zm-5.61,0A2.24,2.24,0,0,1,218,38.34a2.17,2.17,0,0,1,2.26,1.89h-1.44a0.84,0.84,0,0,0-.82-0.56,0.94,0.94,0,0,0,0,1.88,0.84,0.84,0,0,0,.82-0.6h1.46A2.22,2.22,0,0,1,218,42.89,2.25,2.25,0,0,1,215.64,40.62Z" transform="translate(-10.94 -8.67)"/><path class="cls-1" d="M39.87,43.77L39.77,28.35l-7,12.37H27.93l-7-11.84V43.77h-10V9.93h9L30.47,28l10.28-18h9l0.09,33.83h-10Z" transform="translate(-10.94 -8.67)"/><path class="cls-1" d="M80.8,37.87H68.49l-2.18,5.9H55.2L69.37,9.93H80.11L94.27,43.77H83Zm-3-8.22-3.15-8.51L71.5,29.65h6.29Z" transform="translate(-10.94 -8.67)"/><path class="cls-1" d="M113.54,35.26h-3v8.51H99.66V9.93h15.6a18.42,18.42,0,0,1,7.82,1.55,11.66,11.66,0,0,1,5.14,4.45A12.53,12.53,0,0,1,130,22.69,12.38,12.38,0,0,1,128.45,29a11.31,11.31,0,0,1-4.54,4.3l6.8,10.44H119Zm4.35-15.49a4.72,4.72,0,0,0-3.33-1h-4v7.93h4a4.72,4.72,0,0,0,3.33-1A3.81,3.81,0,0,0,119,22.69,3.81,3.81,0,0,0,117.89,19.77Z" transform="translate(-10.94 -8.67)"/><path class="cls-1" d="M143.27,42.29A16.38,16.38,0,0,1,136.81,36a17.94,17.94,0,0,1-2.34-9.16,17.94,17.94,0,0,1,2.34-9.16,16.39,16.39,0,0,1,6.46-6.28,19,19,0,0,1,9.26-2.25,19.58,19.58,0,0,1,8.42,1.74,15.77,15.77,0,0,1,6.11,5l-6.9,6.43q-3-4-7.08-4a7.08,7.08,0,0,0-5.51,2.3,8.82,8.82,0,0,0-2.08,6.16A8.82,8.82,0,0,0,147.57,33a7.08,7.08,0,0,0,5.51,2.3q4.07,0,7.08-4l6.9,6.43a15.77,15.77,0,0,1-6.11,5,19.58,19.58,0,0,1-8.42,1.74A19,19,0,0,1,143.27,42.29Z" transform="translate(-10.94 -8.67)"/><path class="cls-2" d="M209.74,27.4a18.73,18.73,0,0,0-11.48-17.27V44.67A18.73,18.73,0,0,0,209.74,27.4Z" transform="translate(-10.94 -8.67)"/><path class="cls-1" d="M191,8.67a18.65,18.65,0,0,0-6.75,1.27V44.85a18.65,18.65,0,0,0,14-.18V10.12A18.67,18.67,0,0,0,191,8.67Z" transform="translate(-10.94 -8.67)"/><path class="cls-3" d="M172.28,27.4a18.72,18.72,0,0,0,12,17.46V9.94A18.72,18.72,0,0,0,172.28,27.4Z" transform="translate(-10.94 -8.67)"/><line class="cls-4" x1="173.32" y1="1.33" x2="173.32" y2="36.33"/><line class="cls-4" x1="187.32" y1="1.33" x2="187.32" y2="36.33"/></svg>