<svg aria-hidden="true" style="position: absolute; width: 0; height: 0; overflow: hidden;" version="1.1" xmlns="http://www.w3.org/2000/svg" xmlns:xlink="http://www.w3.org/1999/xlink">
<defs>
<symbol id="icon-chevron-small-right" viewBox="0 0 20 20">
<title>chevron-small-right</title>
<path d="M11 10l-3.141-3.42c-0.268-0.27-0.268-0.707 0-0.978 0.268-0.27 0.701-0.27 0.969 0l3.83 3.908c0.268 0.271 0.268 0.709 0 0.979l-3.83 3.908c-0.267 0.272-0.701 0.27-0.969 0s-0.268-0.707 0-0.978l3.141-3.419z"></path>
</symbol>
<symbol id="icon-phone" viewBox="0 0 20 20">
<title>phone</title>
<path d="M20 18.35v0.65c0 0.552-0.448 1-1 1v0h-2c-9.389 0-17-7.611-17-17v0-2c0-0.552 0.448-1 1-1v0h4c0.552 0 1 0.448 1 1v0 4c0 0.56-0.31 1.31-0.7 1.7l-2.14 2.14c1.52 3.6 4.4 6.48 8 8l2.12-2.12c0.4-0.4 1.15-0.71 1.7-0.71h4.020c0.548 0.006 0.99 0.451 0.99 1 0 0 0 0 0 0v0 3.35z"></path>
</symbol>
<symbol id="icon-send" viewBox="0 0 20 20">
<title>send</title>
<path d="M0 0l20 10-20 10v-20zM0 8v4l10-2-10-2z"></path>
</symbol>
</defs>
</svg>
